<svg width="217" height="48" xmlns="http://www.w3.org/2000/svg" xmlns:xlink="http://www.w3.org/1999/xlink"><defs><path id="a" d="M.036.035h13.819v21.391H.036z"/></defs><g fill="none" fill-rule="evenodd"><path d="M53.524 0C46.4 0 40.01 3.14 35.656 8.11A27.46 27.46 0 0 1 48.76 14.31a37.92 37.92 0 0 1 6.864 7.371l1.106 1.652a.776.776 0 0 1 0 .856l-1.099 1.652a37.525 37.525 0 0 1-6.862 7.37 27.357 27.357 0 0 1-13.106 6.206c4.353 4.966 10.741 8.102 17.862 8.102 13.117 0 23.75-10.637 23.75-23.76C77.275 10.638 66.642 0 53.525 0" fill="#FFF"/><path d="M44.463 24.05a2.463 2.463 0 1 1-4.891-.576 2.463 2.463 0 0 1 4.891.576m6.488-.701c-2.735-3.441-9.077-9.986-18.099-10.613l-.36-.021a23.661 23.661 0 0 0-2.718 11.045c0 3.984.981 7.737 2.713 11.035.125-.007.25-.014.374-.023 9.012-.612 15.35-7.141 18.09-10.582a.684.684 0 0 0 0-.841" fill="#FFF"/><path d="M32.487 34.795c-7.83.397-15.51-3.727-21.09-10.682a.557.557 0 0 1 0-.703c5.584-6.958 13.27-11.083 21.095-10.695a23.808 23.808 0 0 1 3.164-4.606 27.464 27.464 0 0 0-2.518-.328 28.487 28.487 0 0 0-20.045 7.02 36.43 36.43 0 0 0-4.613 4.603.2.2 0 0 1-.306-.03 39.822 39.822 0 0 1-3.702-8.84l-.01-.046a2.474 2.474 0 0 0-1.41-1.407 2.064 2.064 0 0 0-1.682.046 2.617 2.617 0 0 0-1.316 2.829l.01.03a44.075 44.075 0 0 0 5.034 11.455.574.574 0 0 1 0 .611A44.742 44.742 0 0 0 .053 35.537l-.01.046v.046a2.6 2.6 0 0 0 1.515 2.37c.277.122.575.19.878.199a2.445 2.445 0 0 0 1.987-1.101l.029-.046.018-.046a40.018 40.018 0 0 1 3.712-8.87.2.2 0 0 1 .306-.03 36.638 36.638 0 0 0 4.622 4.618 28.986 28.986 0 0 0 18.368 7.08c.552 0 1.114-.015 1.668-.06a27.353 27.353 0 0 0 2.516-.325 23.805 23.805 0 0 1-3.175-4.623M183.51 14.07c.692 0 1.264-.2 1.7-.593.44-.398.665-.925.665-1.567 0-.641-.225-1.164-.668-1.554-.435-.382-1.006-.576-1.696-.576-.711 0-1.288.195-1.714.578-.431.388-.65.91-.65 1.552 0 .641.218 1.168.648 1.566.426.394 1.003.594 1.716.594" fill="#FFF"/><path d="M183.686 16.586h-8.322v-.48c0-.868.191-1.53.569-1.972.374-.436.991-.695 1.834-.769l.646-.058c.455-.044.82-.201 1.087-.467.271-.272.409-.653.409-1.135 0-.69-.304-1.514-1.749-1.514a2.49 2.49 0 0 0-.456.03l-.675.058c-1.802.161-3.22.8-4.217 1.897-.988 1.089-1.493 2.572-1.502 4.41h-1.272c-1.517 0-1.836.855-1.836 1.573 0 .717.319 1.573 1.836 1.573h1.272v9.808c0 .625.201 1.11.598 1.44.386.322.872.486 1.443.486.573 0 1.055-.164 1.432-.487.385-.331.58-.815.58-1.439v-9.808h6.106v9.808c0 .624.2 1.113.595 1.453.387.333.874.502 1.447.502.573 0 1.056-.17 1.433-.504.384-.34.579-.828.579-1.45V18.158c0-.718-.319-1.573-1.837-1.573M200.082 24.833c-.34-.558-.906-1.027-1.68-1.394-.753-.356-1.804-.677-3.123-.953-1.204-.248-2.023-.497-2.433-.74-.37-.218-.55-.528-.55-.947 0-.446.18-.787.548-1.044.385-.269.925-.405 1.604-.405.581 0 1.072.07 1.46.209.398.142.883.36 1.436.646.316.178.584.315.795.406.229.098.467.147.707.147.372 0 .69-.157.942-.467.243-.298.367-.67.367-1.106 0-.713-.347-1.292-1.028-1.717-.62-.4-1.328-.71-2.107-.92a9.327 9.327 0 0 0-2.425-.314c-1.156 0-2.203.197-3.112.587-.917.393-1.65.958-2.177 1.678a4.06 4.06 0 0 0-.8 2.446c0 1.189.403 2.137 1.197 2.817.774.664 2.062 1.182 3.824 1.538.963.213 1.69.403 2.162.567.446.154.756.32.92.492.151.16.225.375.225.659 0 .419-.194.738-.594.977-.427.254-1.04.383-1.821.383-.78 0-1.428-.076-1.924-.226a12.667 12.667 0 0 1-1.68-.66c-.621-.332-1.101-.493-1.47-.493s-.684.146-.937.433c-.246.28-.37.643-.37 1.082 0 .754.346 1.342 1.03 1.75 1.334.855 3.105 1.29 5.263 1.29 1.87 0 3.394-.417 4.527-1.24 1.152-.837 1.737-1.966 1.737-3.355 0-.854-.173-1.569-.513-2.126" fill="#FFF"/><g transform="translate(203.004 10.068)"><mask id="b" fill="#fff"><use xlink:href="#a"/></mask><path d="M8.617 6.165c-1.061 0-2.022.21-2.857.622a5.004 5.004 0 0 0-1.67 1.321V1.871c0-.564-.19-1.018-.564-1.348C3.158.199 2.67.035 2.078.035 1.483.035.99.209.613.555.23.905.036 1.367.036 1.93v17.542c0 .6.183 1.08.543 1.43.359.348.853.524 1.47.524.614 0 1.113-.175 1.482-.522.37-.35.56-.831.56-1.432V12.93c0-1.057.302-1.91.898-2.535.595-.622 1.4-.937 2.396-.937.837 0 1.453.22 1.834.652.386.441.582 1.163.582 2.146v7.216c0 .601.188 1.083.56 1.432.368.347.866.522 1.482.522s1.11-.176 1.469-.524c.36-.35.543-.83.543-1.43v-7.216c0-4.041-1.762-6.09-5.238-6.09" fill="#FFF" mask="url(#b)"/></g><path d="M95.699 24.833c-.341-.558-.907-1.027-1.681-1.394-.753-.356-1.803-.677-3.123-.953-1.204-.248-2.023-.497-2.433-.74-.37-.218-.55-.528-.55-.947 0-.446.18-.787.548-1.044.385-.269.925-.405 1.604-.405.582 0 1.072.07 1.46.209.398.142.884.36 1.436.646.316.178.584.315.796.406.228.098.466.147.707.147.372 0 .689-.157.942-.467.243-.298.366-.67.366-1.106 0-.713-.347-1.292-1.027-1.717a7.44 7.44 0 0 0-2.108-.92 9.327 9.327 0 0 0-2.425-.314c-1.156 0-2.202.197-3.112.587-.917.393-1.649.958-2.176 1.678-.531.724-.8 1.548-.8 2.446 0 1.189.402 2.137 1.196 2.817.774.664 2.062 1.182 3.824 1.538.964.213 1.691.403 2.162.567.446.154.756.32.92.492.152.16.225.375.225.659 0 .419-.194.738-.594.977-.426.254-1.04.383-1.821.383-.78 0-1.427-.076-1.923-.226a12.662 12.662 0 0 1-1.68-.66c-.622-.332-1.102-.493-1.47-.493-.37 0-.685.146-.938.433-.246.28-.37.643-.37 1.082 0 .754.346 1.342 1.03 1.75 1.335.855 3.105 1.29 5.263 1.29 1.87 0 3.394-.417 4.527-1.24 1.152-.837 1.737-1.966 1.737-3.355 0-.854-.173-1.569-.512-2.126M106.687 28.378l-.792-.058c-1.22-.09-1.814-.784-1.814-2.124v-6.464h2.298c.572 0 1.023-.134 1.341-.397.329-.272.496-.668.496-1.176 0-.508-.167-.904-.496-1.177-.318-.263-.77-.396-1.34-.396h-2.299V14.08c0-.58-.188-1.053-.56-1.403-.368-.346-.857-.522-1.452-.522-.615 0-1.114.176-1.482.522-.371.35-.56.822-.56 1.403v2.505h-1.272c-.571 0-1.022.133-1.34.396-.33.273-.496.669-.496 1.177s.167.904.496 1.176c.317.263.768.397 1.34.397h1.272v6.2c0 3.39 1.718 5.232 5.106 5.474l.796.06c.098.004.193.007.286.007.608 0 1.097-.116 1.457-.346.438-.281.66-.697.66-1.235 0-.645-.285-1.432-1.645-1.514M118.864 24.777v.422c0 .98-.293 1.79-.871 2.404-.582.62-1.318.922-2.248.922-.601 0-1.09-.18-1.497-.551-.401-.366-.596-.822-.596-1.396 0-.457.133-.804.407-1.062.283-.264.771-.455 1.453-.566.71-.115 1.726-.173 3.018-.173h.334zm2.37-7.004c-1-1.021-2.542-1.54-4.58-1.54-.93 0-1.887.11-2.844.328-.961.218-1.802.521-2.499.9-.416.229-.72.48-.902.75a1.702 1.702 0 0 0-.283.974c0 .459.13.838.386 1.126.261.297.601.447 1.01.447.268 0 .661-.131 1.185-.394.793-.31 1.488-.55 2.064-.713a6.163 6.163 0 0 1 1.677-.242c.859 0 1.482.201 1.852.598.374.401.564 1.062.564 1.965v.48h-.54c-2.134 0-3.835.14-5.056.416-1.247.282-2.164.746-2.727 1.38-.567.64-.855 1.523-.855 2.623 0 .876.238 1.682.706 2.395.467.71 1.113 1.276 1.923 1.68.805.403 1.713.607 2.697.607.968 0 1.836-.226 2.578-.673a4.04 4.04 0 0 0 1.276-1.203c.022.513.204.938.54 1.265.359.347.824.523 1.382.523.597 0 1.077-.171 1.425-.51.35-.339.529-.805.529-1.385v-7.158c0-2.057-.508-3.618-1.507-4.639zM139.156 28.134l-4.944-4.434 4.453-4.143c.408-.407.614-.868.614-1.369 0-.5-.186-.942-.555-1.31a1.8 1.8 0 0 0-1.31-.556c-.501 0-.952.196-1.337.581l-5.946 5.7V12.028c0-.625-.201-1.11-.598-1.44-.386-.322-.872-.485-1.444-.485-.573 0-1.055.163-1.43.486-.386.33-.582.815-.582 1.439V29.54c0 .624.196 1.108.58 1.439.378.323.86.486 1.432.486s1.058-.163 1.444-.485c.397-.33.598-.815.598-1.44v-4.578l6.533 5.922c.407.386.857.581 1.336.581.485 0 .913-.198 1.272-.59.355-.388.535-.837.535-1.335 0-.522-.217-.994-.65-1.406M151.316 22.453h-6.206c.133-1.021.467-1.818.994-2.37.555-.584 1.312-.88 2.249-.88.927 0 1.628.282 2.142.86.483.544.759 1.347.821 2.39m2.11 4.546c-.309 0-.76.161-1.37.487-.598.27-1.139.484-1.608.638-.456.15-.994.225-1.597.225-1.173 0-2.074-.302-2.679-.898-.574-.566-.932-1.455-1.065-2.644h8.436c.597 0 1.308-.253 1.308-1.456 0-1.433-.273-2.696-.813-3.755-.542-1.064-1.316-1.9-2.302-2.485-.984-.582-2.152-.877-3.471-.877-1.377 0-2.629.325-3.72.965a6.619 6.619 0 0 0-2.552 2.718c-.598 1.157-.901 2.5-.901 3.991 0 2.35.7 4.233 2.081 5.595 1.38 1.36 3.27 2.05 5.62 2.05.773 0 1.6-.115 2.454-.344a10.02 10.02 0 0 0 2.304-.913c.785-.446 1.183-1.016 1.183-1.694 0-.474-.118-.86-.35-1.15a1.177 1.177 0 0 0-.958-.453M162.41 21.315a2.463 2.463 0 1 1-.58 4.892 2.463 2.463 0 0 1 .58-4.892z" fill="#FFF"/></g></svg>