<?xml version="1.0" encoding="UTF-8"?>
<svg width="33px" height="36px" viewBox="0 0 33 36" version="1.1" xmlns="http://www.w3.org/2000/svg" xmlns:xlink="http://www.w3.org/1999/xlink">
    <title>discord-svgrepo-com (1)</title>
    <g id="Page-1" stroke="none" stroke-width="1" fill="none" fill-rule="evenodd">
        <g id="discord-svgrepo-com-(1)" fill="#808080" fill-rule="nonzero">
            <path d="M28.833,0 C30.942,0 32.643,1.7055 32.7435,3.7125 L32.7435,36 L28.728,32.5905 L26.523,30.5835 L24.117,28.4865 L25.122,31.794 L4.065,31.794 C1.962,31.794 0.255,30.1965 0.255,28.08 L0.255,3.72 C0.255,1.713 1.965,0.0045 4.0725,0.0045 L28.8225,0.0045 L28.833,0 Z M19.656,8.5245 L19.611,8.5245 L19.308,8.8245 C22.4175,9.7245 23.922,11.13 23.922,11.13 C21.918,10.128 20.112,9.627 18.306,9.4245 C17.001,9.222 15.696,9.3285 14.5935,9.4245 L14.2935,9.4245 C13.5885,9.4245 12.0885,9.7245 10.0785,10.527 C9.378,10.8315 8.976,11.031 8.976,11.031 C8.976,11.031 10.479,9.528 13.791,8.7255 L13.5885,8.523 C13.5885,8.523 11.0805,8.427 8.373,10.428 C8.373,10.428 5.6655,15.144 5.6655,20.958 C5.6655,20.958 7.1655,23.568 11.28,23.667 C11.28,23.667 11.88,22.8675 12.4875,22.164 C10.1775,21.462 9.2775,20.058 9.2775,20.058 C9.2775,20.058 9.4785,20.157 9.78,20.358 L9.87,20.358 C9.915,20.358 9.936,20.3805 9.96,20.403 L9.96,20.412 C9.984,20.436 10.005,20.457 10.05,20.457 C10.545,20.661 11.04,20.862 11.445,21.057 C12.144,21.36 13.0425,21.6615 14.145,21.861 C15.54,22.0635 17.139,22.161 18.96,21.861 C19.86,21.6585 20.76,21.4605 21.66,21.0585 C22.245,20.7585 22.965,20.4585 23.7555,19.953 C23.7555,19.953 22.8555,21.357 20.448,22.059 C20.943,22.758 21.6405,23.559 21.6405,23.559 C25.7565,23.469 27.3555,20.859 27.4455,20.97 C27.4455,15.165 24.723,10.44 24.723,10.44 C22.2705,8.619 19.9755,8.55 19.5705,8.55 L19.6545,8.52 L19.656,8.5245 Z M19.908,15.144 C20.9625,15.144 21.813,16.044 21.813,17.1465 C21.813,18.2565 20.958,19.1565 19.908,19.1565 C18.858,19.1565 18.003,18.2565 18.003,17.1555 C18.006,16.0455 18.8625,15.1485 19.908,15.1485 L19.908,15.144 Z M13.0935,15.144 C14.1435,15.144 14.9925,16.044 14.9925,17.1465 C14.9925,18.2565 14.1375,19.1565 13.0875,19.1565 C12.0375,19.1565 11.1825,18.2565 11.1825,17.1555 C11.1825,16.0455 12.0375,15.1485 13.0875,15.1485 L13.0935,15.144 Z" id="Shape"></path>
        </g>
    </g>
</svg>