<?xml version="1.0" encoding="UTF-8"?>
<svg width="36px" height="30px" viewBox="0 0 36 30" version="1.1" xmlns="http://www.w3.org/2000/svg" xmlns:xlink="http://www.w3.org/1999/xlink">
    <title>twitter-svgrepo-com</title>
    <g id="Page-1" stroke="none" stroke-width="1" fill="none" fill-rule="evenodd">
        <g id="twitter-svgrepo-com" fill="#808080" fill-rule="nonzero">
            <path d="M35.1335906,3.4079141 C34.5688518,3.6583937 33.9882262,3.86979384 33.3949606,4.04141875 C34.0973472,3.24707373 34.6328633,2.31241374 34.9597623,1.28962205 C35.0330508,1.06036364 34.9570952,0.809420186 34.7686557,0.659480315 C34.5804481,0.509424481 34.318952,0.491450251 34.1117266,0.614254832 C32.851791,1.36151897 31.4924753,1.89854259 30.0671768,2.21256979 C28.6314417,0.809652112 26.6814116,0.0112483894 24.6655147,0.0112483894 C20.4102606,0.0112483894 16.9483078,3.47308518 16.9483078,7.72822334 C16.9483078,8.06335576 16.969529,8.39663278 17.0115075,8.7252713 C11.7311424,8.26165211 6.82209019,5.66628919 3.45105225,1.53117251 C3.33091482,1.38378382 3.14583822,1.30434932 2.95635505,1.31954044 C2.76675591,1.33438368 2.59640659,1.44130136 2.50062133,1.60562062 C1.8169048,2.77881603 1.45544882,4.12062133 1.45544882,5.48585111 C1.45544882,7.34531424 2.11933572,9.10957194 3.29206729,10.4881374 C2.93548175,10.3646371 2.58944882,10.2102906 2.25918683,10.0269535 C2.08187974,9.92826915 1.8654932,9.92977666 1.68934574,10.0307802 C1.51308232,10.1317838 1.40256979,10.3175562 1.39793128,10.520607 C1.39711954,10.554816 1.39711954,10.5890251 1.39711954,10.6236979 C1.39711954,13.399267 2.89095204,15.8981489 5.17483894,17.2601317 C4.97862992,17.240534 4.78253686,17.2121231 4.5877194,17.1748991 C4.38687187,17.1365154 4.18034216,17.2069048 4.04489764,17.3600916 C3.90922119,17.5131625 3.86434359,17.726534 3.92684753,17.9213515 C4.77221618,20.5606643 6.94872155,22.5019971 9.57991696,23.0938712 C7.39761346,24.4607244 4.90197853,25.1766786 2.28214746,25.1766786 C1.73549893,25.1766786 1.1857194,25.1445569 0.647652112,25.0808933 C0.38035791,25.0491195 0.124775948,25.2069449 0.0337451682,25.4611353 C-0.057285612,25.7154417 0.0391954188,25.9989707 0.266598425,26.1447359 C3.63218611,28.3026872 7.52378096,29.4432971 11.5204381,29.4432971 C19.3773801,29.4432971 24.2924624,25.7382863 27.032083,22.630136 C30.4483465,18.754544 32.4076535,13.6246986 32.4076535,8.5560816 C32.4076535,8.34433357 32.4044066,8.13049821 32.3979127,7.91735863 C33.745748,6.90187258 34.9061875,5.67289907 35.8504724,4.26035648 C35.9939184,4.04582534 35.9783794,3.76229635 35.8122047,3.56481174 C35.646262,3.36721117 35.3696908,3.30331568 35.1335906,3.4079141 Z" id="XMLID_827_"></path>
        </g>
    </g>
</svg>