<?xml version="1.0" encoding="UTF-8"?>
<svg width="42px" height="39px" viewBox="0 0 42 39" version="1.1" xmlns="http://www.w3.org/2000/svg" xmlns:xlink="http://www.w3.org/1999/xlink">
    <title>-youtube</title>
    <g id="Page-1" stroke="none" stroke-width="1" fill="none" fill-rule="evenodd">
        <g id="-youtube" fill="#808080" fill-rule="nonzero">
            <path d="M9,0 L12,9 L12,15 L14,15 L14,9 L17,0 L15,0 L13,6 L11,0 L9,0 Z M20,4 C18.933594,4 18.410156,4.167969 17.757813,4.703125 C17.132813,5.230469 16.960938,5.636719 17,7 L17,12 C17,12.996094 17.164063,13.652344 17.765625,14.234375 C18.390625,14.816406 18.980469,15 20,15 C21.066406,15 21.648438,14.816406 22.25,14.234375 C22.875,13.675781 23,12.996094 23,12 L23,7 C23,6.117188 22.84375,5.28125 22.238281,4.722656 C21.613281,4.148438 20.96875,4 20,4 Z M25,4 L25,13 C25,13.972656 25.980469,15 27,15 C28.019531,15 28.558594,14.488281 29,14 L29,15 L31,15 L31,4 L29,4 L29,12 C28.988281,12.683594 28.183594,13 28,13 C27.792969,13 27,12.957031 27,12 L27,4 L25,4 Z M20,5.99999977 C20.300781,5.99999977 21,5.996094 21,6.99999977 L21,11.9999998 C21,12.96875 20.324219,12.9999998 20,12.9999998 C19.699219,12.9999998 19,12.988281 19,11.9999998 L19,6.99999977 C19,6.183594 19.433594,5.99999977 20,5.99999977 Z M6,17 C2.40625,17 0,19.382813 0,23 L0,32.5 C0,36.117188 2.40625,39 6,39 L36,39 C39.59375,39 42,36.617188 42,33 L42,23 C42,19.382813 39.59375,17 36,17 L6,17 Z M8,21 L14,21 L14,23 L12,23 L12,35 L10,35 L10,23 L8,23 L8,21 Z M22,21 L24,21 L24,25 C24.230469,24.640625 24.574219,24.355469 24.902344,24.195313 C25.222656,24.03125 25.546875,23.9375 25.875,23.9375 C26.523438,23.9375 27.03125,24.171875 27.378906,24.609375 C27.726563,25.050781 28,25.636719 28,26.5 L28,32.5 C28,33.242188 27.75,33.703125 27.421875,34.097656 C27.101563,34.492188 26.621094,34.992188 26,35 C24.949219,35.011719 24.386719,34.449219 24,34 L24,35 L22,35 L22,21 Z M14,24 L16,24 L16,32 C16,32.230469 16.269531,33.007813 17,33 C17.8125,32.992188 17.820313,32.234375 18,32 L18,24 L20,24 L20,35 L18,35 L18,34 C17.628906,34.4375 17.4375,34.574219 17.019531,34.78125 C16.605469,35.015625 16.183594,35 15.792969,35 C15.308594,35 14.757813,34.5625 14.5,34.234375 C14.269531,33.933594 14,33.625 14,33 L14,24 Z M32.199219,24 C33.148438,24 33.816406,24.203125 34.320313,24.734375 C34.835938,25.265625 35,25.886719 35,26.886719 L35,30 L31,30 L31,31.546875 C31,32.105469 31.074219,32.460938 31.21875,32.671875 C31.355469,32.902344 31.632813,33.003906 32,33 C32.40625,32.996094 32.664063,32.914063 32.800781,32.730469 C32.941406,32.566406 33,32.101563 33,31.5 L33,31 L35,31 L35,31.59375 C35,32.683594 34.914063,33.496094 34.375,34.027344 C33.867188,34.585938 33.074219,34.84375 32.035156,34.84375 C31.085938,34.84375 30.34375,34.5625 29.8125,33.984375 C29.28125,33.40625 29.003906,32.613281 29.003906,31.59375 L29.003906,26.886719 C29.003906,25.980469 29.320313,25.308594 29.902344,24.710938 C30.371094,24.230469 31.25,24 32.199219,24 Z M25,25.5 C24.449219,25.5 24.007813,25.996094 24,26.5 L24,32.5 C24.007813,32.789063 24.449219,33 25,33 C25.550781,33 26,32.574219 26,32.023438 L26,27 C26,26 25.550781,25.5 25,25.5 Z M32,26 C31.449219,26 31.007813,26.464844 31,27 L31,28 L33,28 L33,27 C33,26.386719 32.550781,26 32,26 Z" id="Shape"></path>
        </g>
    </g>
</svg>